<mxfile host="app.diagrams.net" modified="2022-09-06T01:55:35.732Z" agent="5.0 (Windows NT 10.0; Win64; x64) AppleWebKit/537.36 (KHTML, like Gecko) Chrome/104.0.5112.102 Safari/537.36 Edg/104.0.1293.70" etag="stYmiqqyPmxQK-gjcxxf" version="20.2.6" type="github">
  <diagram id="kgpKYQtTHZ0yAKxKKP6v" name="Page-1">
    <mxGraphModel dx="1422" dy="794" grid="1" gridSize="10" guides="1" tooltips="1" connect="1" arrows="1" fold="1" page="1" pageScale="1" pageWidth="850" pageHeight="1100" math="0" shadow="0">
      <root>
        <mxCell id="0" />
        <mxCell id="1" parent="0" />
        <mxCell id="8DFN-el8BNy6IUt9Lmj8-7" value="" style="edgeStyle=orthogonalEdgeStyle;rounded=0;orthogonalLoop=1;jettySize=auto;html=1;" edge="1" parent="1" source="8DFN-el8BNy6IUt9Lmj8-2" target="8DFN-el8BNy6IUt9Lmj8-3">
          <mxGeometry relative="1" as="geometry" />
        </mxCell>
        <mxCell id="8DFN-el8BNy6IUt9Lmj8-2" value="客户端" style="ellipse;whiteSpace=wrap;html=1;aspect=fixed;" vertex="1" parent="1">
          <mxGeometry x="27" y="330" width="80" height="80" as="geometry" />
        </mxCell>
        <mxCell id="8DFN-el8BNy6IUt9Lmj8-3" value="管理中心" style="rounded=1;whiteSpace=wrap;html=1;" vertex="1" parent="1">
          <mxGeometry x="217" y="340" width="120" height="60" as="geometry" />
        </mxCell>
        <mxCell id="8DFN-el8BNy6IUt9Lmj8-16" style="edgeStyle=orthogonalEdgeStyle;rounded=0;orthogonalLoop=1;jettySize=auto;html=1;entryX=0;entryY=0.5;entryDx=0;entryDy=0;" edge="1" parent="1" source="8DFN-el8BNy6IUt9Lmj8-4" target="8DFN-el8BNy6IUt9Lmj8-15">
          <mxGeometry relative="1" as="geometry" />
        </mxCell>
        <mxCell id="8DFN-el8BNy6IUt9Lmj8-4" value="网关01" style="ellipse;whiteSpace=wrap;html=1;aspect=fixed;" vertex="1" parent="1">
          <mxGeometry x="424" y="250" width="80" height="80" as="geometry" />
        </mxCell>
        <mxCell id="8DFN-el8BNy6IUt9Lmj8-18" style="edgeStyle=orthogonalEdgeStyle;rounded=0;orthogonalLoop=1;jettySize=auto;html=1;entryX=0;entryY=0.5;entryDx=0;entryDy=0;" edge="1" parent="1" source="8DFN-el8BNy6IUt9Lmj8-5" target="8DFN-el8BNy6IUt9Lmj8-17">
          <mxGeometry relative="1" as="geometry" />
        </mxCell>
        <mxCell id="8DFN-el8BNy6IUt9Lmj8-5" value="网关02" style="ellipse;whiteSpace=wrap;html=1;aspect=fixed;" vertex="1" parent="1">
          <mxGeometry x="423" y="408" width="80" height="80" as="geometry" />
        </mxCell>
        <mxCell id="8DFN-el8BNy6IUt9Lmj8-6" value="服务A" style="ellipse;whiteSpace=wrap;html=1;aspect=fixed;" vertex="1" parent="1">
          <mxGeometry x="560" y="120" width="60" height="60" as="geometry" />
        </mxCell>
        <mxCell id="8DFN-el8BNy6IUt9Lmj8-10" style="edgeStyle=orthogonalEdgeStyle;rounded=0;orthogonalLoop=1;jettySize=auto;html=1;" edge="1" parent="1" source="8DFN-el8BNy6IUt9Lmj8-8">
          <mxGeometry relative="1" as="geometry">
            <mxPoint x="167" y="380" as="targetPoint" />
          </mxGeometry>
        </mxCell>
        <mxCell id="8DFN-el8BNy6IUt9Lmj8-8" value="加密udp包敲门，&lt;br&gt;客户端信息" style="shape=process;whiteSpace=wrap;html=1;backgroundOutline=1;" vertex="1" parent="1">
          <mxGeometry x="107" y="450" width="120" height="60" as="geometry" />
        </mxCell>
        <mxCell id="8DFN-el8BNy6IUt9Lmj8-14" value="" style="endArrow=classic;html=1;rounded=0;" edge="1" parent="1" target="8DFN-el8BNy6IUt9Lmj8-6">
          <mxGeometry width="50" height="50" relative="1" as="geometry">
            <mxPoint x="490" y="260" as="sourcePoint" />
            <mxPoint x="540" y="210" as="targetPoint" />
          </mxGeometry>
        </mxCell>
        <mxCell id="8DFN-el8BNy6IUt9Lmj8-15" value="服务B" style="ellipse;whiteSpace=wrap;html=1;aspect=fixed;" vertex="1" parent="1">
          <mxGeometry x="630" y="260" width="60" height="60" as="geometry" />
        </mxCell>
        <mxCell id="8DFN-el8BNy6IUt9Lmj8-17" value="服务C" style="ellipse;whiteSpace=wrap;html=1;aspect=fixed;" vertex="1" parent="1">
          <mxGeometry x="640" y="418" width="60" height="60" as="geometry" />
        </mxCell>
        <mxCell id="8DFN-el8BNy6IUt9Lmj8-19" value="" style="endArrow=classic;html=1;rounded=0;" edge="1" parent="1" target="8DFN-el8BNy6IUt9Lmj8-4">
          <mxGeometry width="50" height="50" relative="1" as="geometry">
            <mxPoint x="337" y="367.8" as="sourcePoint" />
            <mxPoint x="416.8198161801106" y="279.9982022018783" as="targetPoint" />
          </mxGeometry>
        </mxCell>
        <mxCell id="8DFN-el8BNy6IUt9Lmj8-20" value="" style="endArrow=classic;html=1;rounded=0;" edge="1" parent="1">
          <mxGeometry width="50" height="50" relative="1" as="geometry">
            <mxPoint x="337" y="377.05999999999995" as="sourcePoint" />
            <mxPoint x="420" y="440" as="targetPoint" />
          </mxGeometry>
        </mxCell>
      </root>
    </mxGraphModel>
  </diagram>
</mxfile>
